<?xml version="1.0" encoding="UTF-8"?>
<svg xmlns="http://www.w3.org/2000/svg" xmlns:xlink="http://www.w3.org/1999/xlink" width="300pt" height="300pt" viewBox="0 0 300 300" version="1.1">
<g id="surface1">
<path style=" stroke:none;fill-rule:nonzero;fill:rgb(0%,0%,0%);fill-opacity:1;" d="M 144.304688 0.441406 C 138.355469 0.757812 137.269531 0.84375 133.675781 1.234375 C 119.734375 2.761719 105.828125 6.304688 93 11.597656 C 88.402344 13.488281 81.804688 16.667969 77.589844 19.011719 C 69.011719 23.777344 60.800781 29.460938 53.1875 35.898438 C 47.484375 40.726562 40.726562 47.484375 35.898438 53.1875 C 24.890625 66.191406 16.3125 80.644531 10.238281 96.40625 C 5.742188 108.101562 2.628906 120.980469 1.234375 133.675781 C 0.574219 139.636719 0.425781 142.59375 0.425781 149.988281 C 0.425781 158.285156 0.707031 162.792969 1.660156 169.90625 C 4.386719 190.25 11.007812 209.25 21.542969 226.90625 C 26.160156 234.652344 32.039062 242.632812 38.417969 249.816406 C 40.898438 252.601562 47.421875 259.140625 50.21875 261.621094 C 60.570312 270.832031 71.078125 277.96875 83.210938 284.042969 C 100.890625 292.886719 119.683594 297.996094 139.90625 299.449219 C 144.183594 299.753906 156.046875 299.753906 160.25 299.449219 C 186.070312 297.554688 209.789062 289.6875 231.0625 275.988281 C 244.453125 267.351562 256.804688 256.230469 266.824219 243.757812 C 286.058594 219.808594 297.214844 191.238281 299.449219 160.191406 C 299.753906 155.914062 299.753906 144.183594 299.449219 139.90625 C 298.632812 128.480469 296.726562 117.9375 293.5625 107.28125 C 287.816406 87.964844 278.128906 69.878906 265.199219 54.363281 C 259.664062 47.714844 252.417969 40.46875 245.84375 34.996094 C 230.316406 22.054688 212.074219 12.253906 193 6.597656 C 182.0625 3.359375 171.589844 1.464844 160.070312 0.660156 C 157.515625 0.488281 146.417969 0.328125 144.304688 0.441406 Z M 149.316406 4.558594 L 149.316406 8.148438 L 146.359375 8.234375 C 143 8.320312 140.210938 8.480469 137.476562 8.738281 C 136.4375 8.835938 135.570312 8.894531 135.558594 8.882812 C 135.507812 8.820312 134.773438 1.796875 134.8125 1.746094 C 134.933594 1.636719 138.574219 1.355469 143.632812 1.0625 C 143.976562 1.039062 145.382812 1.015625 146.785156 1.003906 L 149.316406 0.976562 Z M 159.640625 1.222656 C 162.109375 1.394531 165.226562 1.6875 165.285156 1.746094 C 165.335938 1.808594 164.589844 8.835938 164.515625 8.90625 C 164.492188 8.933594 163.503906 8.859375 162.304688 8.75 C 159.199219 8.480469 156.746094 8.332031 153.566406 8.234375 L 150.78125 8.148438 L 150.78125 0.941406 L 154.300781 1.015625 C 156.230469 1.0625 158.640625 1.148438 159.640625 1.222656 Z M 134.214844 2.40625 C 134.445312 4.300781 134.886719 8.835938 134.835938 8.90625 C 134.8125 8.96875 134.382812 9.042969 133.894531 9.089844 C 131.242188 9.347656 126.050781 10.140625 122.570312 10.8125 C 121.675781 10.984375 120.90625 11.105469 120.871094 11.070312 C 120.832031 11.035156 120.515625 9.578125 120.148438 7.855469 C 119.78125 6.121094 119.464844 4.558594 119.429688 4.386719 L 119.355469 4.070312 L 121.359375 3.691406 C 125.5625 2.871094 132.113281 1.894531 133.625 1.84375 L 134.128906 1.832031 Z M 168.730469 2.089844 C 172.152344 2.503906 180.511719 3.910156 180.695312 4.09375 C 180.742188 4.140625 179.277344 11.144531 179.191406 11.21875 C 179.167969 11.242188 178.507812 11.121094 177.710938 10.949219 C 176.90625 10.789062 174.9375 10.421875 173.324219 10.152344 C 170.820312 9.738281 169.269531 9.519531 165.785156 9.089844 C 165.457031 9.054688 165.199219 8.957031 165.199219 8.882812 C 165.199219 8.796875 165.371094 7.222656 165.566406 5.375 C 165.761719 3.53125 165.933594 1.980469 165.933594 1.917969 C 165.933594 1.785156 166.570312 1.820312 168.730469 2.089844 Z M 118.890625 4.972656 C 118.964844 5.363281 119.304688 6.914062 119.625 8.429688 C 119.953125 9.945312 120.1875 11.21875 120.136719 11.253906 C 120.089844 11.300781 119.257812 11.511719 118.292969 11.730469 C 115.933594 12.253906 111.597656 13.402344 109.054688 14.1875 C 107.917969 14.527344 106.867188 14.847656 106.734375 14.871094 C 106.5 14.917969 106.378906 14.625 105.414062 11.609375 C 104.8125 9.789062 104.351562 8.234375 104.375 8.164062 C 104.421875 8.015625 104.925781 7.84375 108.566406 6.78125 C 111.679688 5.878906 117.828125 4.324219 118.488281 4.289062 C 118.71875 4.277344 118.769531 4.375 118.890625 4.972656 Z M 185.59375 5.191406 C 190.347656 6.367188 195.636719 7.917969 195.722656 8.164062 C 195.773438 8.320312 193.695312 14.796875 193.535156 14.96875 C 193.460938 15.042969 193.046875 14.957031 192.410156 14.75 C 189.6875 13.867188 183.515625 12.195312 181.023438 11.667969 C 180.484375 11.546875 180.011719 11.414062 179.949219 11.375 C 179.898438 11.328125 180.132812 10.019531 180.460938 8.480469 C 180.792969 6.941406 181.132812 5.363281 181.207031 4.972656 L 181.355469 4.253906 L 181.890625 4.335938 C 182.183594 4.375 183.859375 4.765625 185.59375 5.191406 Z M 103.777344 8.699219 C 104.238281 9.847656 105.839844 15.054688 105.742188 15.140625 C 105.683594 15.1875 104.863281 15.492188 103.921875 15.824219 C 101.378906 16.691406 97.46875 18.183594 95.125 19.183594 C 93.988281 19.671875 92.9375 20.089844 92.789062 20.125 C 92.570312 20.171875 92.484375 20.0625 92.214844 19.402344 C 92.046875 18.988281 91.410156 17.535156 90.800781 16.191406 C 90.199219 14.847656 89.722656 13.710938 89.761719 13.671875 C 89.820312 13.574219 93.5 12.011719 95.613281 11.179688 C 97.691406 10.363281 103.3125 8.332031 103.519531 8.320312 C 103.566406 8.308594 103.691406 8.492188 103.777344 8.699219 Z M 198.128906 8.847656 C 201.882812 10.105469 208.234375 12.585938 209.957031 13.464844 C 210.410156 13.683594 210.410156 13.699219 210.238281 14.089844 C 210.140625 14.296875 209.566406 15.605469 208.957031 16.984375 C 208.34375 18.363281 207.746094 19.695312 207.636719 19.941406 C 207.527344 20.199219 207.429688 20.40625 207.40625 20.40625 C 207.390625 20.40625 206.914062 20.210938 206.355469 19.964844 C 202.808594 18.4375 199.621094 17.191406 196.359375 16.054688 C 195.320312 15.6875 194.402344 15.371094 194.316406 15.335938 C 194.207031 15.296875 194.207031 15.164062 194.34375 14.761719 C 196.054688 9.46875 196.445312 8.308594 196.519531 8.308594 C 196.53125 8.308594 197.261719 8.554688 198.128906 8.847656 Z M 155.121094 8.917969 C 163.222656 9.261719 169.792969 10.019531 177.296875 11.496094 C 198.582031 15.6875 218.757812 24.914062 236.121094 38.402344 C 243.363281 44.039062 250.511719 50.84375 256.4375 57.734375 C 272.078125 75.964844 282.820312 97.765625 287.5625 120.917969 C 289.675781 131.28125 290.554688 140.6875 290.40625 151.453125 C 290.335938 156.550781 290.25 158.210938 289.894531 162.207031 C 287.449219 189.199219 277.53125 214.382812 260.886719 235.824219 C 255.351562 242.972656 248.386719 250.292969 241.507812 256.195312 C 228.835938 267.070312 214.394531 275.609375 198.898438 281.378906 C 174.621094 290.433594 147.960938 292.570312 122.371094 287.511719 C 98.058594 282.699219 75.890625 271.738281 56.878906 255.121094 C 53.996094 252.601562 47.410156 246.089844 45.027344 243.402344 C 36.035156 233.234375 29.226562 223.117188 23.410156 211.253906 C 19.929688 204.15625 17.410156 197.765625 15.152344 190.308594 C 11.988281 179.839844 10.226562 170.027344 9.382812 158.175781 C 9.175781 155.253906 9.175781 143.914062 9.382812 140.882812 C 10.558594 123.863281 14.050781 109.140625 20.550781 93.902344 C 21.847656 90.871094 25.171875 84.101562 26.757812 81.257812 C 31.5 72.8125 37.449219 64.308594 43.4375 57.429688 C 51.648438 47.996094 61.132812 39.578125 71.113281 32.882812 C 76.746094 29.09375 81.390625 26.394531 87.425781 23.398438 C 95.917969 19.195312 103.933594 16.140625 112.902344 13.699219 C 126.40625 10.03125 141.300781 8.34375 155.121094 8.917969 Z M 90.589844 17.289062 C 91.375 19.023438 91.960938 20.492188 91.910156 20.527344 C 91.863281 20.578125 91.359375 20.820312 90.785156 21.078125 C 88.964844 21.894531 84.199219 24.304688 82.027344 25.488281 C 80.878906 26.125 79.875 26.636719 79.8125 26.636719 C 79.65625 26.636719 76.210938 20.6875 76.269531 20.515625 C 76.40625 20.101562 88.867188 13.796875 89.101562 14.027344 C 89.136719 14.078125 89.820312 15.542969 90.589844 17.289062 Z M 214.320312 15.457031 C 218.597656 17.511719 223.851562 20.320312 223.851562 20.550781 C 223.851562 20.734375 220.285156 26.882812 220.171875 26.882812 C 220.125 26.882812 219.441406 26.515625 218.644531 26.074219 C 216.558594 24.902344 213.027344 23.082031 210.375 21.8125 C 209.117188 21.210938 208.089844 20.664062 208.089844 20.601562 C 208.089844 20.492188 210.644531 14.664062 210.910156 14.148438 C 211.058594 13.878906 210.910156 13.832031 214.320312 15.457031 Z M 75.171875 21.894531 C 75.328125 22.191406 76.113281 23.535156 76.894531 24.890625 C 77.675781 26.257812 78.324219 27.417969 78.324219 27.46875 C 78.324219 27.53125 77.515625 28.066406 76.527344 28.664062 C 74.65625 29.789062 69.695312 33.050781 68.011719 34.261719 C 67.484375 34.640625 67.007812 34.96875 66.960938 34.984375 C 66.898438 34.996094 65.921875 33.710938 64.773438 32.136719 C 62.828125 29.449219 62.707031 29.253906 62.902344 29.070312 C 63.84375 28.164062 74.292969 21.382812 74.730469 21.382812 C 74.816406 21.382812 75.011719 21.617188 75.171875 21.894531 Z M 227.332031 22.496094 C 231.171875 24.828125 237.4375 29.03125 237.378906 29.226562 C 237.316406 29.472656 233.101562 35.191406 232.992188 35.191406 C 232.929688 35.191406 232.292969 34.773438 231.585938 34.261719 C 229.800781 32.980469 225.21875 29.949219 223.277344 28.777344 C 222.386719 28.238281 221.652344 27.75 221.652344 27.6875 C 221.652344 27.628906 222.324219 26.417969 223.144531 25 C 223.960938 23.582031 224.769531 22.191406 224.925781 21.894531 C 225.085938 21.617188 225.28125 21.382812 225.367188 21.382812 C 225.453125 21.382812 226.332031 21.882812 227.332031 22.496094 Z M 241.164062 32 C 244.855469 34.859375 249.511719 38.78125 249.511719 39.015625 C 249.511719 39.089844 245.980469 43.085938 244.792969 44.34375 L 244.515625 44.636719 L 243.132812 43.425781 C 240.210938 40.859375 238.183594 39.199219 235.335938 37.035156 C 234.433594 36.339844 233.6875 35.703125 233.6875 35.628906 C 233.6875 35.546875 234.652344 34.152344 235.824219 32.539062 L 237.964844 29.59375 L 238.476562 29.949219 C 238.757812 30.144531 239.96875 31.0625 241.164062 32 Z M 64.296875 32.574219 C 65.433594 34.117188 66.347656 35.398438 66.335938 35.433594 C 66.335938 35.472656 65.445312 36.167969 64.355469 36.988281 C 62.109375 38.671875 59.347656 40.921875 57.039062 42.925781 C 56.171875 43.683594 55.414062 44.292969 55.363281 44.292969 C 55.207031 44.292969 50.5625 39.101562 50.609375 38.976562 C 50.648438 38.867188 52.222656 37.476562 54.070312 35.910156 C 57.0625 33.394531 61.914062 29.65625 62.121094 29.730469 C 62.195312 29.753906 63.171875 31.035156 64.296875 32.574219 Z M 52.359375 42.035156 C 53.359375 43.144531 54.324219 44.21875 54.519531 44.429688 L 54.875 44.808594 L 53.921875 45.710938 C 51.675781 47.835938 48.472656 51.027344 46.761719 52.847656 C 45.746094 53.921875 44.878906 54.800781 44.832031 54.800781 C 44.78125 54.800781 43.5625 53.738281 42.105469 52.429688 L 39.480469 50.0625 L 39.722656 49.71875 C 40.101562 49.167969 46.285156 42.925781 48.253906 41.082031 L 50.011719 39.441406 L 50.28125 39.734375 C 50.425781 39.882812 51.367188 40.921875 52.359375 42.035156 Z M 252.957031 42.117188 C 255.230469 44.269531 260.289062 49.460938 260.53125 49.902344 C 260.59375 50 259.652344 50.929688 257.808594 52.601562 L 254.984375 55.144531 L 253.945312 53.996094 C 253.371094 53.359375 251.136719 51.085938 248.972656 48.9375 L 245.039062 45.027344 L 247.542969 42.253906 C 249.179688 40.433594 250.097656 39.503906 250.195312 39.566406 C 250.28125 39.613281 251.515625 40.761719 252.957031 42.117188 Z M 41.703125 52.921875 C 43.132812 54.203125 44.304688 55.304688 44.332031 55.351562 C 44.355469 55.402344 43.792969 56.097656 43.097656 56.890625 C 41.359375 58.871094 38.746094 62.109375 37 64.417969 C 36.203125 65.480469 35.507812 66.347656 35.460938 66.347656 C 35.3125 66.347656 29.777344 62.269531 29.730469 62.121094 C 29.679688 61.972656 31.671875 59.3125 33.917969 56.511719 C 35.117188 55.023438 35.851562 54.128906 38.367188 51.222656 C 38.671875 50.867188 38.964844 50.585938 39.015625 50.585938 C 39.0625 50.585938 40.273438 51.636719 41.703125 52.921875 Z M 262.867188 52.503906 C 264.894531 54.863281 267.265625 57.796875 269.121094 60.25 L 270.515625 62.109375 L 270.246094 62.316406 C 269.050781 63.246094 264.46875 66.507812 264.355469 66.519531 C 264.273438 66.53125 263.585938 65.703125 262.828125 64.699219 C 260.9375 62.195312 258.933594 59.714844 257.0625 57.527344 C 256.195312 56.523438 255.5 55.65625 255.523438 55.597656 C 255.585938 55.414062 260.921875 50.597656 261.070312 50.597656 C 261.132812 50.585938 261.949219 51.453125 262.867188 52.503906 Z M 32.503906 65.042969 C 33.882812 66.042969 34.996094 66.921875 34.996094 67.007812 C 34.984375 67.082031 34.554688 67.742188 34.03125 68.488281 C 32.527344 70.613281 30.449219 73.800781 29.03125 76.148438 C 28.3125 77.347656 27.675781 78.347656 27.628906 78.371094 C 27.578125 78.410156 27.1875 78.226562 26.746094 77.96875 C 26.320312 77.710938 24.9375 76.917969 23.679688 76.183594 C 22.410156 75.464844 21.382812 74.804688 21.382812 74.730469 C 21.382812 74.304688 27.882812 64.285156 29.058594 62.902344 C 29.265625 62.660156 28.847656 62.390625 32.503906 65.042969 Z M 272.46875 64.871094 C 274.925781 68.390625 278.714844 74.390625 278.714844 74.742188 C 278.714844 74.816406 278.421875 75.050781 278.078125 75.246094 C 277.726562 75.441406 276.234375 76.296875 274.769531 77.136719 C 272.140625 78.664062 272.117188 78.679688 271.945312 78.410156 C 271.847656 78.261719 271.347656 77.417969 270.820312 76.550781 C 269.464844 74.277344 267.484375 71.238281 265.96875 69.050781 C 264.761719 67.328125 264.675781 67.15625 264.871094 67.019531 C 264.992188 66.933594 266.386719 65.921875 267.960938 64.773438 C 269.539062 63.625 270.859375 62.683594 270.894531 62.683594 C 270.929688 62.683594 271.640625 63.671875 272.46875 64.871094 Z M 23.667969 77.980469 C 25.316406 78.921875 26.6875 79.765625 26.710938 79.839844 C 26.734375 79.925781 26.296875 80.828125 25.722656 81.867188 C 24.65625 83.785156 21.894531 89.320312 21.125 91.054688 C 20.894531 91.582031 20.664062 92.007812 20.601562 92.007812 C 20.453125 92.007812 14.148438 89.210938 14.027344 89.101562 C 13.867188 88.941406 17.019531 82.464844 19.085938 78.691406 C 19.660156 77.652344 20.1875 76.675781 20.269531 76.515625 C 20.34375 76.367188 20.480469 76.246094 20.539062 76.246094 C 20.613281 76.246094 22.019531 77.027344 23.667969 77.980469 Z M 280.265625 77.308594 C 282.429688 81.109375 286.265625 88.90625 286.070312 89.089844 C 285.960938 89.210938 279.058594 92.265625 279.019531 92.230469 C 279.007812 92.203125 278.507812 91.140625 277.933594 89.871094 C 277.054688 87.953125 274.867188 83.640625 273.253906 80.683594 C 273.070312 80.339844 272.933594 80.023438 272.972656 79.996094 C 273.15625 79.828125 279.410156 76.246094 279.519531 76.246094 C 279.605469 76.246094 279.9375 76.722656 280.265625 77.308594 Z M 16.984375 91.140625 C 18.363281 91.753906 19.695312 92.351562 19.953125 92.460938 C 20.210938 92.570312 20.394531 92.71875 20.355469 92.789062 C 18.730469 96.554688 17.253906 100.355469 16.179688 103.542969 C 15.75 104.8125 15.371094 105.878906 15.359375 105.902344 C 15.335938 105.925781 13.964844 105.5 12.328125 104.972656 C 8.722656 103.800781 8.515625 103.726562 8.394531 103.617188 C 8.210938 103.457031 10.679688 96.6875 12.550781 92.253906 C 13.699219 89.515625 13.613281 89.652344 14.089844 89.859375 C 14.296875 89.945312 15.605469 90.53125 16.984375 91.140625 Z M 287.011719 90.945312 C 289.0625 95.699219 291.921875 103.421875 291.703125 103.628906 C 291.640625 103.679688 290.308594 104.140625 288.734375 104.65625 C 284.507812 106.035156 284.324219 106.085938 284.285156 106.046875 C 284.261719 106.023438 284.042969 105.363281 283.785156 104.59375 C 282.769531 101.527344 281.160156 97.238281 279.765625 93.964844 C 279.253906 92.753906 279.203125 92.839844 280.597656 92.265625 C 281.074219 92.070312 282.5625 91.398438 283.90625 90.800781 C 285.25 90.1875 286.375 89.6875 286.414062 89.6875 C 286.449219 89.6875 286.71875 90.25 287.011719 90.945312 Z M 11.753906 105.460938 C 14.625 106.390625 15.152344 106.597656 15.101562 106.769531 C 15.066406 106.878906 14.90625 107.417969 14.734375 107.953125 C 13.808594 110.921875 12.414062 116.238281 11.777344 119.21875 C 11.632812 119.90625 11.511719 120.234375 11.398438 120.234375 C 11.300781 120.234375 9.984375 119.964844 8.457031 119.636719 C 6.929688 119.304688 5.363281 118.964844 4.984375 118.890625 C 4.582031 118.816406 4.277344 118.683594 4.277344 118.597656 C 4.277344 117.667969 6.71875 108.429688 8.003906 104.496094 C 8.039062 104.421875 8.125 104.351562 8.199219 104.351562 C 8.273438 104.351562 9.871094 104.851562 11.753906 105.460938 Z M 292.425781 105.511719 C 293.585938 109.226562 295.515625 116.53125 295.761719 118.195312 L 295.84375 118.742188 L 295.125 118.890625 C 294.734375 118.964844 293.023438 119.332031 291.3125 119.695312 C 289.601562 120.0625 288.171875 120.320312 288.125 120.269531 C 288.074219 120.222656 287.828125 119.234375 287.574219 118.097656 C 287 115.53125 286.144531 112.242188 285.226562 109.140625 C 284.847656 107.855469 284.566406 106.757812 284.617188 106.71875 C 284.75 106.574219 291.605469 104.375 291.851562 104.386719 C 292.035156 104.410156 292.15625 104.644531 292.425781 105.511719 Z M 8.003906 120.171875 C 9.824219 120.566406 11.328125 120.894531 11.351562 120.917969 C 11.375 120.941406 11.230469 121.859375 11.023438 122.945312 C 10.421875 126.050781 9.714844 130.765625 9.347656 134.128906 C 9.273438 134.773438 9.226562 134.898438 9.03125 134.898438 C 8.589844 134.898438 1.90625 134.152344 1.84375 134.101562 C 1.648438 133.894531 2.761719 126.136719 3.691406 121.359375 L 4.070312 119.355469 L 4.386719 119.429688 C 4.558594 119.464844 6.195312 119.792969 8.003906 120.171875 Z M 296.40625 121.296875 C 297.300781 125.769531 298.496094 134.042969 298.277344 134.128906 C 298.117188 134.1875 291.261719 134.898438 290.824219 134.898438 L 290.347656 134.898438 L 290.261719 134.128906 C 289.980469 131.539062 289.273438 126.675781 288.796875 124.082031 C 288.488281 122.421875 288.257812 121.042969 288.269531 121.015625 C 288.292969 121.003906 289.273438 120.785156 290.445312 120.539062 C 291.617188 120.285156 293.265625 119.929688 294.109375 119.746094 C 294.953125 119.5625 295.722656 119.402344 295.832031 119.390625 C 295.992188 119.378906 296.101562 119.757812 296.40625 121.296875 Z M 5.863281 135.214844 C 7.574219 135.386719 9.03125 135.582031 9.078125 135.628906 C 9.140625 135.691406 9.101562 136.792969 8.992188 138.085938 C 8.785156 140.675781 8.566406 145.160156 8.515625 147.667969 L 8.492188 149.253906 L 4.742188 149.292969 L 0.976562 149.316406 L 0.976562 147.152344 C 0.976562 144.257812 1.378906 137.21875 1.660156 135.277344 L 1.746094 134.75 L 2.25 134.8125 C 2.515625 134.847656 4.15625 135.03125 5.863281 135.214844 Z M 298.4375 135.226562 C 298.691406 136.863281 299.082031 143.425781 299.144531 147.054688 L 299.179688 149.253906 L 291.117188 149.253906 L 291.09375 147.847656 C 291.042969 145.308594 290.800781 140.25 290.617188 137.964844 C 290.519531 136.730469 290.457031 135.691406 290.492188 135.667969 C 290.542969 135.617188 297.398438 134.824219 298.046875 134.789062 C 298.324219 134.773438 298.375 134.835938 298.4375 135.226562 Z M 8.554688 152.175781 C 8.554688 154.140625 8.761719 158.066406 9.042969 161.460938 C 9.175781 163.074219 9.25 164.429688 9.199219 164.46875 C 9.089844 164.566406 1.820312 165.359375 1.746094 165.285156 C 1.6875 165.226562 1.394531 162.085938 1.222656 159.640625 C 1.148438 158.625 1.0625 156.230469 1.015625 154.289062 L 0.941406 150.78125 L 8.554688 150.78125 Z M 299.15625 150.867188 C 299.390625 151.257812 298.621094 165.003906 298.351562 165.273438 C 298.300781 165.335938 290.433594 164.503906 290.359375 164.417969 C 290.335938 164.40625 290.394531 163.515625 290.492188 162.4375 C 290.75 159.691406 290.921875 156.878906 291.007812 153.777344 C 291.042969 152.296875 291.09375 151.015625 291.128906 150.929688 C 291.152344 150.820312 292.070312 150.78125 295.136719 150.78125 C 297.324219 150.78125 299.132812 150.820312 299.15625 150.867188 Z M 294.613281 165.566406 C 296.542969 165.773438 298.15625 165.933594 298.226562 165.933594 C 298.351562 165.933594 298.339844 166.082031 298.007812 168.867188 C 297.617188 172.09375 296.199219 180.484375 296.003906 180.695312 C 295.992188 180.71875 294.769531 180.472656 293.304688 180.167969 C 288.90625 179.253906 288.183594 179.09375 288.097656 179.019531 C 288.050781 178.984375 288.0625 178.726562 288.125 178.457031 C 288.527344 176.675781 289.417969 171.371094 289.785156 168.632812 C 290.015625 166.851562 290.226562 165.324219 290.25 165.25 C 290.273438 165.1875 290.480469 165.140625 290.703125 165.164062 C 290.933594 165.1875 292.691406 165.371094 294.613281 165.566406 Z M 9.410156 165.371094 C 9.410156 166.3125 10.570312 173.863281 11.167969 176.808594 C 11.414062 177.980469 11.609375 178.984375 11.609375 179.03125 C 11.609375 179.15625 11.4375 179.203125 7.929688 179.9375 C 6.160156 180.304688 4.558594 180.632812 4.386719 180.667969 L 4.070312 180.742188 L 3.679688 178.738281 C 2.921875 174.816406 1.832031 167.511719 1.832031 166.335938 C 1.832031 166.03125 1.894531 165.933594 2.054688 165.921875 C 2.164062 165.921875 3.640625 165.761719 5.316406 165.566406 C 8.980469 165.164062 9.410156 165.140625 9.410156 165.371094 Z M 11.851562 180.046875 C 11.851562 180.644531 13.90625 188.402344 14.917969 191.667969 C 15.238281 192.667969 15.394531 193.351562 15.324219 193.414062 C 15.164062 193.574219 8.320312 195.773438 8.164062 195.722656 C 8.015625 195.675781 7.6875 194.671875 6.707031 191.3125 C 5.9375 188.648438 4.472656 182.832031 4.335938 181.890625 L 4.253906 181.339844 L 4.714844 181.257812 C 4.984375 181.207031 6.648438 180.851562 8.429688 180.472656 C 10.214844 180.082031 11.707031 179.800781 11.765625 179.828125 C 11.816406 179.851562 11.851562 179.949219 11.851562 180.046875 Z M 291.667969 180.472656 C 293.183594 180.792969 294.734375 181.132812 295.125 181.207031 C 295.675781 181.316406 295.820312 181.390625 295.820312 181.574219 C 295.820312 182.417969 293.769531 190.296875 292.523438 194.292969 L 292.035156 195.832031 L 288.183594 194.585938 C 286.058594 193.902344 284.296875 193.316406 284.261719 193.28125 C 284.238281 193.242188 284.480469 192.3125 284.824219 191.214844 C 285.605469 188.671875 286.765625 184.394531 287.328125 181.941406 C 287.574219 180.902344 287.792969 179.972656 287.828125 179.875 C 287.902344 179.667969 288.109375 179.703125 291.667969 180.472656 Z M 285.070312 194.257812 C 288.257812 195.269531 291.617188 196.394531 291.703125 196.46875 C 291.851562 196.617188 290.128906 201.550781 288.636719 205.277344 C 287.976562 206.914062 286.535156 210.324219 286.472656 210.386719 C 286.449219 210.410156 285.179688 209.871094 283.640625 209.1875 C 279.667969 207.417969 278.957031 207.085938 278.957031 206.988281 C 278.957031 206.941406 279.324219 206.0625 279.765625 205.023438 C 280.890625 202.394531 282.148438 199.144531 283.078125 196.480469 C 283.503906 195.234375 283.882812 194.148438 283.90625 194.050781 C 283.945312 193.964844 284.042969 193.914062 284.128906 193.9375 C 284.199219 193.976562 284.628906 194.109375 285.070312 194.257812 Z M 16.140625 195.355469 C 16.996094 197.945312 18.890625 202.835938 20.269531 206.011719 C 20.859375 207.355469 20.90625 207.246094 19.5 207.832031 C 19.023438 208.027344 17.535156 208.6875 16.191406 209.296875 C 14.847656 209.898438 13.699219 210.347656 13.648438 210.300781 C 13.527344 210.179688 12.648438 208.136719 11.609375 205.585938 C 9.996094 201.589844 8.246094 196.617188 8.40625 196.46875 C 8.480469 196.394531 9.691406 195.992188 14.90625 194.292969 C 15.273438 194.171875 15.617188 194.085938 15.664062 194.109375 C 15.703125 194.148438 15.921875 194.695312 16.140625 195.355469 Z M 282.390625 209.324219 C 284.371094 210.203125 286.035156 210.960938 286.082031 211.007812 C 286.351562 211.277344 279.949219 223.851562 279.546875 223.851562 C 279.398438 223.851562 272.875 220.101562 272.617188 219.867188 C 272.484375 219.746094 272.617188 219.429688 273.460938 217.914062 C 274.65625 215.761719 277.078125 211.035156 277.957031 209.089844 C 278.300781 208.34375 278.628906 207.722656 278.691406 207.722656 C 278.75 207.722656 280.414062 208.441406 282.390625 209.324219 Z M 21.980469 209.761719 C 23.105469 212.171875 24.964844 215.785156 26.257812 218.097656 C 26.808594 219.074219 27.234375 219.917969 27.210938 219.976562 C 27.175781 220.113281 20.761719 223.839844 20.566406 223.851562 C 20.417969 223.851562 19.613281 222.457031 17.875 219.148438 C 16.640625 216.8125 14.089844 211.523438 14.027344 211.191406 C 14.003906 211.023438 14.636719 210.691406 17.472656 209.421875 C 19.390625 208.566406 20.980469 207.855469 21.015625 207.855469 C 21.054688 207.84375 21.480469 208.710938 21.980469 209.761719 Z M 274.316406 222.691406 C 276.832031 224.132812 278.054688 224.839844 278.554688 225.148438 L 278.824219 225.316406 L 278.480469 225.902344 C 277.566406 227.457031 275.625 230.558594 274.644531 232.039062 C 273.15625 234.273438 270.96875 237.414062 270.894531 237.414062 C 270.84375 237.414062 264.355469 232.734375 264.199219 232.589844 C 264.175781 232.5625 264.773438 231.648438 265.542969 230.546875 C 267.460938 227.824219 268.183594 226.734375 269.84375 224.035156 C 270.636719 222.75 271.371094 221.589844 271.46875 221.433594 C 271.554688 221.285156 271.675781 221.175781 271.726562 221.199219 C 271.773438 221.238281 272.933594 221.894531 274.316406 222.691406 Z M 28.652344 222.226562 C 29.839844 224.304688 32.894531 228.957031 34.789062 231.585938 C 35.226562 232.183594 35.558594 232.722656 35.53125 232.785156 C 35.496094 232.894531 29.3125 237.414062 29.203125 237.414062 C 28.898438 237.402344 21.382812 225.832031 21.382812 225.367188 C 21.382812 225.292969 22.410156 224.632812 23.679688 223.914062 C 24.9375 223.179688 26.40625 222.324219 26.941406 222.007812 C 27.480469 221.6875 27.980469 221.417969 28.042969 221.417969 C 28.117188 221.40625 28.382812 221.773438 28.652344 222.226562 Z M 267.253906 235.59375 C 269.023438 236.875 270.480469 237.953125 270.503906 237.964844 C 270.550781 238 267.472656 242.046875 266.105469 243.730469 C 264.199219 246.089844 261.230469 249.511719 261.105469 249.511719 C 261.035156 249.511719 259.628906 248.289062 257.964844 246.796875 C 256.304688 245.308594 254.925781 244.074219 254.898438 244.0625 C 254.875 244.039062 255.65625 243.097656 256.621094 241.972656 C 258.917969 239.296875 260.347656 237.5625 262.21875 235.117188 C 263.074219 233.992188 263.796875 233.148438 263.878906 233.1875 C 263.964844 233.222656 265.480469 234.296875 267.253906 235.59375 Z M 36.65625 234.152344 C 38.011719 236.023438 42.082031 240.996094 44.207031 243.378906 L 44.964844 244.234375 L 42.035156 246.882812 C 40.40625 248.339844 39.039062 249.511719 38.976562 249.488281 C 38.625 249.375 32.832031 242.363281 30.570312 239.320312 C 29.679688 238.109375 29.605469 237.964844 29.789062 237.828125 C 29.898438 237.746094 31.316406 236.71875 32.929688 235.53125 C 34.542969 234.359375 35.921875 233.394531 35.984375 233.394531 C 36.058594 233.394531 36.351562 233.738281 36.65625 234.152344 Z M 257.796875 247.496094 C 259.359375 248.898438 260.617188 250.097656 260.605469 250.148438 C 260.582031 250.195312 259.445312 251.417969 258.078125 252.871094 C 255.621094 255.472656 250.34375 260.570312 250.109375 260.570312 C 249.976562 260.570312 244.476562 254.507812 244.527344 254.410156 C 244.550781 254.363281 245.394531 253.554688 246.417969 252.589844 C 247.433594 251.636719 249.65625 249.425781 251.367188 247.691406 C 254.375 244.613281 254.460938 244.539062 254.703125 244.734375 C 254.851562 244.84375 256.242188 246.078125 257.796875 247.496094 Z M 53.214844 252.613281 C 54.363281 253.691406 55.277344 254.632812 55.277344 254.714844 C 55.265625 254.789062 54.09375 256.160156 52.664062 257.734375 C 50.964844 259.617188 50 260.59375 49.902344 260.53125 C 49.195312 260.128906 39.96875 250.902344 39.566406 250.195312 C 39.503906 250.097656 40.480469 249.132812 42.410156 247.386719 L 45.355469 244.734375 L 48.242188 247.691406 C 49.839844 249.316406 52.078125 251.539062 53.214844 252.613281 Z M 246.761719 257.917969 C 248.242188 259.566406 249.460938 260.984375 249.488281 261.058594 C 249.535156 261.230469 246.554688 263.820312 243.15625 266.570312 C 241.886719 267.59375 238 270.539062 237.964844 270.503906 C 237.953125 270.480469 236.875 269.011719 235.582031 267.230469 C 234.285156 265.445312 233.175781 263.929688 233.125 263.855469 C 233.050781 263.769531 233.601562 263.28125 234.703125 262.464844 C 237.035156 260.703125 239.441406 258.761719 241.875 256.671875 C 243.023438 255.695312 243.976562 254.898438 244.011719 254.898438 C 244.050781 254.898438 245.285156 256.257812 246.761719 257.917969 Z M 57.867188 256.792969 C 60.007812 258.625 63.34375 261.316406 65.335938 262.769531 C 66.152344 263.378906 66.824219 263.90625 66.835938 263.953125 C 66.835938 264.015625 62.488281 270.074219 62.144531 270.492188 C 62.097656 270.550781 58.40625 267.730469 56.292969 266.019531 C 54.019531 264.1875 50.84375 261.460938 50.660156 261.191406 C 50.527344 260.996094 55.792969 255.082031 56 255.21875 C 56.074219 255.265625 56.914062 255.976562 57.867188 256.792969 Z M 234.96875 267.472656 C 236.277344 269.28125 237.367188 270.808594 237.378906 270.859375 C 237.464844 271.101562 229.875 276.148438 225.902344 278.480469 L 225.316406 278.824219 L 225.148438 278.554688 C 225.050781 278.410156 224.488281 277.429688 223.886719 276.394531 C 223.289062 275.355469 222.421875 273.851562 221.96875 273.070312 C 221.519531 272.273438 221.175781 271.589844 221.210938 271.53125 C 221.25 271.46875 221.8125 271.101562 222.46875 270.710938 C 224.472656 269.527344 228.824219 266.703125 230.632812 265.40625 C 231.574219 264.734375 232.40625 264.1875 232.464844 264.1875 C 232.539062 264.1875 233.664062 265.664062 234.96875 267.472656 Z M 68.449219 265.054688 C 70.859375 266.765625 76.183594 270.199219 78.285156 271.394531 C 78.582031 271.554688 78.8125 271.738281 78.8125 271.785156 C 78.8125 271.835938 78.054688 273.179688 77.136719 274.78125 C 76.222656 276.367188 75.328125 277.90625 75.171875 278.1875 C 75.011719 278.480469 74.816406 278.714844 74.742188 278.714844 C 74.207031 278.714844 62.621094 271.152344 62.71875 270.859375 C 62.792969 270.625 67.351562 264.417969 67.460938 264.417969 C 67.523438 264.417969 67.972656 264.699219 68.449219 265.054688 Z M 221.8125 275.890625 C 222.933594 277.835938 223.851562 279.472656 223.851562 279.546875 C 223.851562 279.949219 211.277344 286.351562 211.007812 286.082031 C 210.921875 285.996094 207.992188 279.460938 207.722656 278.761719 C 207.625 278.53125 207.832031 278.410156 210.140625 277.308594 C 212.769531 276.050781 216.960938 273.886719 218.660156 272.921875 C 219.195312 272.617188 219.660156 272.359375 219.695312 272.359375 C 219.734375 272.359375 220.6875 273.949219 221.8125 275.890625 Z M 81.230469 273.082031 C 83.210938 274.230469 90.933594 278.105469 92.046875 278.496094 C 92.230469 278.566406 92.375 278.652344 92.375 278.703125 C 92.375 278.835938 89.199219 285.972656 89.089844 286.070312 C 88.832031 286.339844 76.246094 279.949219 76.246094 279.546875 C 76.246094 279.335938 80.179688 272.605469 80.304688 272.605469 C 80.363281 272.605469 80.792969 272.8125 81.230469 273.082031 Z M 207.441406 279.730469 C 209.933594 285.3125 210.421875 286.4375 210.386719 286.472656 C 210.324219 286.535156 206.914062 287.976562 205.277344 288.636719 C 201.550781 290.128906 196.617188 291.851562 196.46875 291.703125 C 196.417969 291.65625 195.96875 290.335938 195.453125 288.796875 C 194.023438 284.359375 193.867188 283.859375 193.925781 283.808594 C 193.953125 283.785156 195.1875 283.34375 196.664062 282.832031 C 199.328125 281.902344 204.363281 279.9375 205.890625 279.226562 C 206.328125 279.019531 206.769531 278.847656 206.867188 278.847656 C 206.976562 278.847656 207.195312 279.191406 207.441406 279.730469 Z M 94.476562 279.558594 C 97.46875 280.839844 102.40625 282.710938 105.144531 283.601562 C 105.621094 283.75 106.035156 283.917969 106.085938 283.957031 C 106.144531 284.003906 106.046875 284.457031 105.890625 284.945312 C 105.71875 285.445312 105.167969 287.15625 104.65625 288.734375 C 104.140625 290.308594 103.679688 291.640625 103.628906 291.703125 C 103.480469 291.851562 99.035156 290.285156 94.878906 288.636719 C 93.058594 287.914062 89.785156 286.546875 89.699219 286.472656 C 89.6875 286.449219 89.882812 285.949219 90.152344 285.347656 C 90.421875 284.761719 90.980469 283.503906 91.398438 282.5625 C 92.300781 280.511719 93.011719 278.957031 93.046875 278.957031 C 93.070312 278.957031 93.707031 279.226562 94.476562 279.558594 Z M 193.425781 284.542969 C 193.488281 284.800781 194.0625 286.582031 194.695312 288.515625 L 195.84375 292.035156 L 194.109375 292.570312 C 189.613281 293.976562 181.609375 296.015625 181.390625 295.808594 C 181.355469 295.773438 181.195312 295.089844 181.035156 294.28125 C 180.765625 293.023438 179.851562 288.683594 179.679688 287.914062 C 179.617188 287.671875 179.703125 287.632812 180.816406 287.390625 C 183.136719 286.875 188.148438 285.558594 190.492188 284.835938 C 191.800781 284.445312 192.972656 284.101562 193.085938 284.101562 C 193.230469 284.089844 193.339844 284.238281 193.425781 284.542969 Z M 109.445312 284.933594 C 112.304688 285.789062 115.46875 286.621094 118.328125 287.269531 C 119.453125 287.535156 120.394531 287.757812 120.417969 287.78125 C 120.429688 287.804688 120.101562 289.40625 119.683594 291.359375 C 119.269531 293.304688 118.890625 295.113281 118.839844 295.382812 L 118.757812 295.84375 L 118.207031 295.761719 C 115.703125 295.394531 104.519531 292.300781 104.386719 291.949219 C 104.351562 291.851562 105.535156 287.988281 106.734375 284.359375 C 106.769531 284.285156 106.84375 284.214844 106.902344 284.214844 C 106.976562 284.214844 108.113281 284.542969 109.445312 284.933594 Z M 179.300781 289.222656 C 179.898438 291.910156 180.730469 295.96875 180.695312 296.003906 C 180.597656 296.101562 177.136719 296.75 174.195312 297.226562 C 171.382812 297.679688 168.144531 298.128906 166.410156 298.289062 L 165.957031 298.339844 L 165.8125 297.042969 C 165.554688 294.769531 165.089844 290.03125 165.113281 290.003906 C 165.128906 289.992188 166.324219 289.847656 167.765625 289.664062 C 170.539062 289.320312 174.277344 288.722656 177.199219 288.148438 C 178.152344 287.953125 178.957031 287.804688 178.972656 287.816406 C 178.984375 287.816406 179.128906 288.453125 179.300781 289.222656 Z M 123.898438 288.429688 C 126.992188 288.992188 130.472656 289.527344 132.699219 289.773438 C 135.203125 290.054688 135.03125 289.980469 134.957031 290.605469 C 134.921875 290.882812 134.726562 292.742188 134.519531 294.722656 C 134.3125 296.699219 134.140625 298.324219 134.128906 298.339844 C 134.066406 298.363281 131.097656 298.007812 129.460938 297.777344 C 126.125 297.3125 119.5625 296.152344 119.402344 296.003906 C 119.367188 295.96875 119.550781 295.089844 120.613281 290.078125 C 121.101562 287.78125 121.078125 287.855469 121.308594 287.925781 C 121.417969 287.964844 122.59375 288.195312 123.898438 288.429688 Z M 138.699219 290.382812 C 140.640625 290.53125 144.917969 290.738281 148.339844 290.847656 L 149.253906 290.871094 L 149.292969 294.953125 C 149.304688 297.203125 149.277344 299.082031 149.230469 299.132812 C 148.960938 299.390625 135.117188 298.644531 134.824219 298.351562 C 134.789062 298.324219 134.957031 296.53125 135.203125 294.367188 C 135.433594 292.203125 135.628906 290.347656 135.628906 290.25 C 135.628906 290.113281 135.726562 290.078125 136.035156 290.140625 C 136.242188 290.175781 137.449219 290.285156 138.699219 290.382812 Z M 164.46875 290.25 C 164.46875 290.347656 164.664062 292.203125 164.894531 294.367188 C 165.140625 296.53125 165.308594 298.324219 165.273438 298.351562 C 164.980469 298.644531 151.136719 299.390625 150.867188 299.132812 C 150.820312 299.082031 150.792969 297.203125 150.804688 294.953125 L 150.84375 290.871094 L 154.507812 290.738281 C 157.953125 290.605469 163.488281 290.238281 163.601562 290.128906 C 163.625 290.101562 163.832031 290.078125 164.0625 290.078125 C 164.332031 290.078125 164.46875 290.140625 164.46875 290.25 Z M 164.46875 290.25 "/>
<path style=" stroke:none;fill-rule:nonzero;fill:rgb(0%,0%,0%);fill-opacity:1;" d="M 135.324219 13.976562 C 135.191406 14.078125 135.128906 14.246094 135.167969 14.480469 C 135.203125 14.796875 135.265625 14.859375 135.742188 14.96875 C 136.121094 15.054688 136.375 15.210938 136.632812 15.519531 C 136.828125 15.75 137.953125 17.789062 139.113281 20.039062 C 140.898438 23.472656 141.238281 24.21875 141.25 24.65625 C 141.25 25.109375 140.96875 25.734375 139.40625 28.75 C 136.972656 33.457031 136.839844 33.640625 135.753906 33.820312 C 135.152344 33.917969 134.945312 34.164062 135.070312 34.617188 L 135.140625 34.945312 L 137.746094 34.945312 C 140.480469 34.945312 140.640625 34.921875 140.640625 34.382812 C 140.640625 34.042969 140.433594 33.871094 139.90625 33.820312 C 139.503906 33.785156 139.480469 33.75 139.441406 33.308594 C 139.40625 32.84375 140.089844 31.355469 142.019531 27.75 L 142.570312 26.734375 L 144.109375 29.730469 C 146.210938 33.808594 146.210938 33.808594 145.199219 33.871094 L 144.613281 33.90625 L 144.613281 34.886719 L 147.679688 34.921875 L 150.757812 34.945312 L 150.832031 34.640625 C 150.953125 34.175781 150.722656 33.847656 150.269531 33.847656 C 149.511719 33.847656 149.121094 33.210938 145.101562 25.476562 C 144.109375 23.582031 144.074219 23.742188 146.273438 19.550781 C 147.25 17.707031 148.167969 16.019531 148.324219 15.800781 C 148.644531 15.371094 149.132812 15.101562 149.867188 14.945312 C 150.28125 14.859375 150.355469 14.796875 150.390625 14.503906 C 150.464844 13.84375 150.378906 13.820312 147.570312 13.820312 C 144.820312 13.820312 144.792969 13.820312 144.792969 14.429688 C 144.792969 14.796875 145.1875 15.03125 145.796875 15.03125 C 146.164062 15.03125 146.175781 15.042969 146.101562 15.507812 C 146.042969 15.996094 143.242188 21.503906 143.058594 21.503906 C 142.902344 21.503906 140.03125 15.652344 140.03125 15.347656 C 140.03125 15.089844 140.101562 15.054688 140.714844 15.003906 C 141.472656 14.945312 141.640625 14.796875 141.59375 14.234375 L 141.558594 13.867188 L 138.539062 13.84375 C 136.339844 13.832031 135.472656 13.867188 135.324219 13.976562 Z M 135.324219 13.976562 "/>
<path style=" stroke:none;fill-rule:nonzero;fill:rgb(0%,0%,0%);fill-opacity:1;" d="M 151.394531 14.371094 L 151.394531 14.871094 L 151.96875 14.945312 C 152.394531 14.992188 152.613281 15.089844 152.824219 15.335938 L 153.105469 15.664062 L 153.078125 24.5 C 153.042969 34.507812 153.128906 33.710938 152.039062 33.847656 L 151.453125 33.90625 L 151.417969 34.421875 L 151.378906 34.945312 L 157.757812 34.945312 L 157.722656 34.421875 L 157.6875 33.90625 L 157.085938 33.835938 C 155.949219 33.710938 156.035156 34.445312 156.035156 24.488281 C 156.035156 18.230469 156.074219 15.6875 156.171875 15.46875 C 156.328125 15.140625 156.832031 14.90625 157.390625 14.90625 C 157.722656 14.90625 157.746094 14.882812 157.746094 14.382812 L 157.746094 13.84375 L 154.570312 13.855469 L 151.394531 13.855469 Z M 151.394531 14.371094 "/>
<path style=" stroke:none;fill-rule:nonzero;fill:rgb(0%,0%,0%);fill-opacity:1;" d="M 158.722656 14.371094 L 158.722656 14.871094 L 159.296875 14.945312 C 159.726562 14.992188 159.945312 15.089844 160.152344 15.335938 L 160.433594 15.652344 L 160.433594 24.425781 C 160.433594 34.445312 160.519531 33.710938 159.382812 33.835938 L 158.785156 33.90625 L 158.75 34.421875 L 158.710938 34.945312 L 165.089844 34.945312 L 165.054688 34.421875 L 165.015625 33.90625 L 164.417969 33.835938 C 163.28125 33.710938 163.367188 34.445312 163.367188 24.425781 L 163.367188 15.652344 L 163.648438 15.335938 C 163.855469 15.089844 164.078125 14.992188 164.503906 14.945312 L 165.078125 14.871094 L 165.078125 13.84375 L 161.902344 13.84375 L 158.722656 13.855469 Z M 158.722656 14.371094 "/>
<path style=" stroke:none;fill-rule:nonzero;fill:rgb(0%,0%,0%);fill-opacity:1;" d="M 89.566406 26.796875 C 88.929688 27.222656 87.730469 27.96875 86.914062 28.46875 C 86.082031 28.957031 85.410156 29.386719 85.410156 29.433594 C 85.410156 29.472656 85.546875 29.667969 85.703125 29.875 L 85.996094 30.242188 L 86.4375 30.023438 C 87.328125 29.605469 87.78125 29.828125 88.488281 31 C 88.722656 31.390625 90.617188 34.433594 92.679688 37.757812 C 97.273438 45.125 97.019531 44.683594 97.019531 45.246094 C 97.019531 45.636719 96.957031 45.746094 96.53125 46.042969 C 96.273438 46.222656 96.054688 46.417969 96.042969 46.492188 C 96.042969 46.554688 96.175781 46.773438 96.320312 46.96875 L 96.617188 47.324219 L 98.128906 46.347656 C 98.960938 45.808594 100.148438 45.074219 100.746094 44.722656 C 101.355469 44.367188 101.871094 44.050781 101.90625 44.023438 C 101.980469 43.964844 101.527344 43.132812 101.417969 43.132812 C 101.355469 43.132812 101.085938 43.242188 100.804688 43.363281 C 100.121094 43.671875 99.695312 43.523438 99.230469 42.839844 C 98.730469 42.105469 91.445312 30.402344 90.824219 29.324219 C 90.53125 28.824219 90.296875 28.285156 90.296875 28.117188 C 90.296875 27.933594 90.480469 27.652344 90.8125 27.359375 L 91.3125 26.882812 L 91.082031 26.453125 C 90.957031 26.222656 90.824219 26.027344 90.785156 26.027344 C 90.75 26.027344 90.199219 26.367188 89.566406 26.796875 Z M 89.566406 26.796875 "/>
<path style=" stroke:none;fill-rule:nonzero;fill:rgb(0%,0%,0%);fill-opacity:1;" d="M 83.566406 30.5 C 83.136719 30.804688 82.160156 31.414062 81.414062 31.855469 C 79.996094 32.6875 79.875 32.832031 80.15625 33.371094 C 80.328125 33.664062 80.597656 33.664062 81.171875 33.359375 L 81.636719 33.113281 L 81.816406 33.566406 C 82.015625 34.019531 82.5625 40.152344 82.429688 40.285156 C 82.367188 40.359375 77.640625 37.5 76.894531 36.9375 C 76.367188 36.558594 76.378906 36.277344 76.929688 35.984375 C 77.542969 35.65625 77.628906 35.445312 77.332031 34.984375 C 77.164062 34.703125 77.027344 34.617188 76.882812 34.675781 C 76.773438 34.714844 75.988281 35.203125 75.148438 35.753906 C 74.304688 36.300781 73.242188 36.960938 72.789062 37.207031 C 71.796875 37.746094 71.628906 37.988281 71.921875 38.441406 C 72.09375 38.699219 72.191406 38.734375 72.445312 38.671875 C 73.289062 38.453125 73.65625 38.464844 74.179688 38.734375 C 75.269531 39.296875 81.941406 43.304688 82.257812 43.597656 C 82.429688 43.757812 82.636719 44.039062 82.710938 44.21875 C 82.769531 44.390625 82.980469 46.417969 83.164062 48.71875 C 83.527344 53.542969 83.515625 53.738281 82.710938 54.570312 C 82.257812 55.035156 82.234375 55.09375 82.367188 55.386719 C 82.613281 55.925781 82.894531 55.914062 83.738281 55.328125 C 84.152344 55.035156 85.117188 54.421875 85.875 53.957031 C 87.339844 53.078125 87.511719 52.824219 87.011719 52.371094 C 86.792969 52.164062 86.742188 52.164062 86.375 52.347656 C 85.839844 52.613281 85.742188 52.589844 85.484375 52.164062 C 85.324219 51.882812 85.214844 51.28125 85.09375 49.816406 C 84.800781 46.25 84.726562 45.089844 84.824219 45.089844 C 85.019531 45.089844 90.726562 48.558594 91.019531 48.851562 C 91.3125 49.15625 91.324219 49.15625 91.082031 49.351562 C 90.945312 49.460938 90.703125 49.632812 90.542969 49.742188 C 90.273438 49.914062 90.25 49.988281 90.359375 50.292969 C 90.589844 50.941406 90.996094 50.84375 92.65625 49.753906 C 93.476562 49.230469 94.550781 48.558594 95.039062 48.277344 C 95.96875 47.738281 96.113281 47.484375 95.746094 46.96875 C 95.578125 46.75 95.550781 46.75 95.015625 46.945312 C 94.515625 47.128906 94.402344 47.128906 93.925781 46.96875 C 93.644531 46.871094 91.53125 45.699219 89.257812 44.367188 C 85.875 42.386719 85.042969 41.851562 84.761719 41.457031 C 84.421875 40.980469 84.410156 40.945312 84.089844 36.875 C 83.722656 32.171875 83.738281 32.039062 84.59375 31.257812 C 85.03125 30.839844 85.070312 30.765625 84.945312 30.5 C 84.675781 29.898438 84.433594 29.898438 83.566406 30.5 Z M 83.566406 30.5 "/>
<path style=" stroke:none;fill-rule:nonzero;fill:rgb(0%,0%,0%);fill-opacity:1;" d="M 215.128906 30.925781 L 214.894531 31.316406 L 215.40625 31.734375 C 215.824219 32.074219 215.910156 32.234375 215.910156 32.574219 C 215.910156 33.125 215.980469 32.992188 212.914062 38.125 C 211.484375 40.507812 209.617188 43.644531 208.761719 45.089844 C 207.894531 46.519531 207.0625 47.824219 206.890625 47.984375 C 206.523438 48.324219 206.207031 48.339844 205.621094 48.03125 C 205.375 47.910156 205.132812 47.847656 205.070312 47.886719 C 204.925781 47.984375 204.519531 48.644531 204.570312 48.691406 C 204.59375 48.71875 205.265625 49.109375 206.074219 49.574219 C 206.878906 50.035156 208.078125 50.757812 208.738281 51.171875 C 209.410156 51.589844 209.996094 51.894531 210.054688 51.855469 C 210.117188 51.820312 210.25 51.625 210.363281 51.417969 C 210.558594 51.050781 210.546875 51.027344 210.277344 50.820312 C 210.117188 50.695312 209.945312 50.585938 209.898438 50.585938 C 209.847656 50.585938 209.726562 50.425781 209.628906 50.230469 C 209.3125 49.632812 208.796875 50.5625 216.8125 37.144531 C 217.546875 35.898438 218.304688 34.738281 218.488281 34.542969 C 218.867188 34.175781 219.332031 34.117188 219.820312 34.394531 C 220.269531 34.652344 220.382812 34.628906 220.664062 34.152344 L 220.90625 33.722656 L 219.988281 33.199219 C 219.476562 32.917969 218.28125 32.210938 217.3125 31.609375 C 216.347656 31.023438 215.519531 30.546875 215.457031 30.546875 C 215.394531 30.546875 215.25 30.71875 215.128906 30.925781 Z M 215.128906 30.925781 "/>
<path style=" stroke:none;fill-rule:nonzero;fill:rgb(0%,0%,0%);fill-opacity:1;" d="M 35.300781 76.394531 C 35.019531 76.882812 34.410156 77.871094 33.945312 78.59375 C 33.222656 79.691406 33.113281 79.925781 33.222656 80.132812 C 33.480469 80.609375 33.847656 80.597656 34.3125 80.09375 C 34.726562 79.644531 34.75 79.644531 35.054688 79.828125 C 35.25 79.949219 36.023438 81.097656 37.046875 82.808594 C 38.476562 85.203125 38.683594 85.59375 38.476562 85.628906 C 38.136719 85.691406 32.660156 85.167969 32.113281 85.03125 C 31.867188 84.96875 31.621094 84.859375 31.585938 84.800781 C 31.550781 84.738281 31.671875 84.410156 31.855469 84.066406 L 32.195312 83.457031 L 31.890625 83.210938 C 31.355469 82.796875 31.21875 82.894531 30.484375 84.152344 C 30.09375 84.8125 29.410156 85.921875 28.945312 86.632812 C 28.066406 87.988281 27.96875 88.269531 28.324219 88.539062 C 28.652344 88.796875 28.886719 88.746094 29.238281 88.355469 C 29.421875 88.148438 29.742188 87.953125 29.984375 87.914062 C 30.207031 87.867188 32.550781 88 35.179688 88.207031 C 39.101562 88.503906 40.03125 88.613281 40.335938 88.796875 C 40.628906 88.964844 41.238281 89.882812 42.828125 92.558594 C 45.320312 96.75 45.171875 96.480469 45.332031 97.191406 C 45.441406 97.691406 45.417969 97.847656 45.210938 98.324219 C 44.976562 98.851562 44.976562 98.898438 45.160156 99.121094 C 45.285156 99.242188 45.515625 99.339844 45.6875 99.339844 C 45.941406 99.339844 46.078125 99.21875 46.359375 98.691406 C 46.554688 98.351562 47.117188 97.421875 47.617188 96.640625 C 48.59375 95.089844 48.691406 94.695312 48.191406 94.464844 C 47.898438 94.34375 47.835938 94.367188 47.484375 94.757812 L 47.078125 95.1875 L 46.664062 94.917969 C 46.371094 94.722656 45.871094 94.011719 45.003906 92.558594 C 43.304688 89.75 42.851562 88.941406 42.925781 88.867188 C 43 88.808594 48.851562 89.257812 49.742188 89.40625 C 50.5 89.515625 50.550781 89.601562 50.246094 90.238281 C 49.902344 90.933594 49.914062 90.957031 50.28125 91.203125 C 50.746094 91.507812 50.976562 91.3125 51.773438 89.957031 C 52.152344 89.308594 52.808594 88.234375 53.25 87.585938 C 53.679688 86.9375 54.007812 86.300781 53.984375 86.179688 C 53.957031 86.070312 53.800781 85.886719 53.617188 85.777344 C 53.285156 85.605469 53.261719 85.605469 52.835938 86.058594 L 52.394531 86.511719 L 51.332031 86.511719 C 50.097656 86.511719 43.4375 86.070312 42.242188 85.910156 C 41.667969 85.839844 41.289062 85.703125 41.019531 85.496094 C 40.75 85.300781 39.957031 84.066406 38.648438 81.855469 C 37.5625 80.011719 36.609375 78.347656 36.546875 78.164062 C 36.351562 77.652344 36.386719 76.917969 36.621094 76.417969 C 36.828125 75.976562 36.828125 75.976562 36.546875 75.746094 C 36.046875 75.34375 35.851562 75.441406 35.300781 76.394531 Z M 35.300781 76.394531 "/>
<path style=" stroke:none;fill-rule:nonzero;fill:rgb(0%,0%,0%);fill-opacity:1;" d="M 263.660156 76.320312 C 263.269531 76.527344 263.246094 76.636719 263.515625 77.039062 C 263.796875 77.480469 263.769531 78.03125 263.429688 78.398438 C 263.269531 78.554688 261.988281 79.375 260.570312 80.179688 C 259.164062 81 257.5625 81.929688 257.027344 82.234375 C 255.484375 83.125 251.171875 85.628906 249.707031 86.472656 C 248.128906 87.378906 247.738281 87.4375 247.261719 86.863281 C 247.09375 86.65625 246.945312 86.4375 246.945312 86.375 C 246.945312 86.191406 246.40625 86.253906 246.113281 86.484375 L 245.832031 86.707031 L 246.617188 87.976562 C 247.042969 88.683594 247.738281 89.894531 248.167969 90.664062 C 248.582031 91.433594 248.960938 92.09375 248.984375 92.132812 C 249.011719 92.15625 249.230469 92.082031 249.460938 91.949219 C 249.914062 91.703125 249.914062 91.679688 249.621094 90.957031 C 249.414062 90.445312 249.558594 90.003906 250.035156 89.636719 C 250.246094 89.480469 252.6875 88.039062 255.4375 86.449219 C 258.199219 84.859375 261.328125 83.039062 262.414062 82.40625 C 265.238281 80.765625 265.308594 80.753906 266.03125 81.511719 C 266.484375 81.988281 266.53125 82 266.875 81.867188 C 267.070312 81.78125 267.265625 81.660156 267.300781 81.609375 C 267.339844 81.550781 266.933594 80.765625 266.398438 79.875 C 265.859375 78.996094 265.164062 77.785156 264.832031 77.1875 C 264.515625 76.601562 264.1875 76.125 264.125 76.125 C 264.050781 76.136719 263.84375 76.222656 263.660156 76.320312 Z M 263.660156 76.320312 "/>
<path style=" stroke:none;fill-rule:nonzero;fill:rgb(0%,0%,0%);fill-opacity:1;" d="M 267.351562 82.6875 C 267.179688 82.796875 267.035156 82.894531 267.007812 82.90625 C 266.996094 82.917969 267.09375 83.1875 267.230469 83.503906 C 267.523438 84.152344 267.484375 84.382812 267.007812 84.824219 C 266.824219 84.996094 264.429688 86.4375 261.667969 88.039062 C 258.917969 89.625 256.109375 91.25 255.4375 91.640625 C 251.675781 93.828125 251.589844 93.867188 250.988281 93.253906 C 250.804688 93.070312 250.625 92.851562 250.597656 92.753906 C 250.527344 92.558594 250.074219 92.632812 249.71875 92.886719 C 249.523438 93.035156 249.585938 93.167969 250.464844 94.636719 C 250.988281 95.503906 251.6875 96.714844 252.003906 97.324219 C 252.332031 97.921875 252.628906 98.449219 252.652344 98.472656 C 252.738281 98.582031 253.542969 98.117188 253.542969 97.972656 C 253.53125 97.886719 253.457031 97.679688 253.359375 97.507812 C 253.078125 97.019531 253.140625 96.554688 253.519531 96.175781 C 253.703125 96.003906 254.839844 95.285156 256.046875 94.585938 C 257.257812 93.890625 258.6875 93.058594 259.226562 92.742188 C 265.296875 89.1875 268.390625 87.449219 268.804688 87.402344 C 269.21875 87.339844 269.304688 87.378906 269.695312 87.84375 C 270.171875 88.402344 270.332031 88.441406 270.761719 88.109375 L 271.054688 87.878906 L 270.015625 86.132812 C 269.441406 85.167969 268.730469 83.945312 268.449219 83.417969 C 268.167969 82.90625 267.875 82.476562 267.789062 82.476562 C 267.71875 82.476562 267.511719 82.574219 267.351562 82.6875 Z M 267.351562 82.6875 "/>
<path style=" stroke:none;fill-rule:nonzero;fill:rgb(0%,0%,0%);fill-opacity:1;" d="M 33.871094 139.027344 C 33.785156 139.089844 33.6875 139.34375 33.640625 139.613281 C 33.515625 140.445312 33.613281 140.382812 27.859375 143.449219 C 24.488281 145.257812 24.070312 145.441406 23.523438 145.453125 C 22.972656 145.453125 22.554688 145.269531 19.367188 143.632812 C 15.542969 141.65625 14.980469 141.261719 14.847656 140.433594 C 14.699219 139.578125 14.675781 139.539062 14.246094 139.539062 C 14.015625 139.539062 13.78125 139.613281 13.734375 139.6875 C 13.671875 139.773438 13.636719 141.019531 13.660156 142.4375 L 13.699219 145.039062 L 14.015625 145.113281 C 14.503906 145.246094 14.722656 145.027344 14.761719 144.367188 L 14.796875 143.792969 L 15.324219 143.839844 C 15.675781 143.890625 16.765625 144.378906 18.621094 145.332031 C 20.136719 146.125 21.382812 146.796875 21.382812 146.847656 C 21.382812 146.980469 15.382812 149.9375 15.140625 149.925781 C 14.980469 149.925781 14.917969 149.769531 14.882812 149.242188 C 14.820312 148.484375 14.675781 148.3125 14.113281 148.363281 L 13.746094 148.398438 L 13.734375 151.394531 C 13.734375 153.042969 13.78125 154.484375 13.832031 154.59375 C 13.976562 154.898438 14.613281 154.886719 14.785156 154.582031 C 14.847656 154.449219 14.90625 154.214844 14.90625 154.058594 C 14.90625 153.46875 15.296875 153.226562 20.992188 150.230469 C 22.726562 149.328125 24.15625 148.65625 24.4375 148.621094 C 24.867188 148.558594 25.28125 148.742188 28.679688 150.476562 C 33.308594 152.847656 33.566406 153.03125 33.710938 154.128906 C 33.796875 154.714844 34.066406 154.910156 34.542969 154.742188 L 34.886719 154.617188 L 34.835938 152.066406 C 34.8125 150.585938 34.738281 149.4375 34.675781 149.339844 C 34.519531 149.144531 34.03125 149.144531 33.871094 149.351562 C 33.796875 149.425781 33.722656 149.695312 33.699219 149.925781 C 33.664062 150.355469 33.664062 150.355469 33.050781 150.34375 C 32.515625 150.34375 32.085938 150.160156 29.519531 148.839844 L 26.613281 147.324219 L 27.382812 146.910156 C 30.167969 145.40625 33.113281 143.9375 33.332031 143.9375 C 33.601562 143.9375 33.6875 144.109375 33.75 144.855469 C 33.785156 145.171875 33.835938 145.222656 34.199219 145.257812 C 34.445312 145.285156 34.652344 145.234375 34.714844 145.136719 C 34.773438 145.050781 34.824219 143.671875 34.824219 142.082031 C 34.824219 139.34375 34.8125 139.175781 34.59375 139.050781 C 34.3125 138.90625 34.089844 138.894531 33.871094 139.027344 Z M 33.871094 139.027344 "/>
<path style=" stroke:none;fill-rule:nonzero;fill:rgb(0%,0%,0%);fill-opacity:1;" d="M 285.105469 139.417969 C 284.886719 139.503906 284.824219 139.625 284.824219 140.015625 C 284.824219 140.296875 284.726562 140.605469 284.59375 140.773438 C 284.359375 141.066406 284.335938 141.066406 281.132812 141.140625 C 279.375 141.191406 275.355469 141.226562 272.226562 141.238281 C 265.6875 141.25 266.019531 141.3125 265.898438 140.199219 L 265.824219 139.601562 L 265.308594 139.566406 L 264.785156 139.527344 L 264.785156 145.894531 L 265.847656 145.894531 L 265.921875 145.332031 C 265.957031 144.976562 266.082031 144.671875 266.238281 144.5 C 266.484375 144.257812 266.65625 144.246094 269.464844 144.171875 C 275.0625 144.011719 284.019531 144.039062 284.359375 144.195312 C 284.703125 144.34375 284.910156 144.746094 284.96875 145.34375 C 285.007812 145.6875 285.042969 145.710938 285.496094 145.710938 L 285.984375 145.710938 L 285.949219 142.535156 C 285.910156 139.371094 285.910156 139.355469 285.644531 139.332031 C 285.496094 139.320312 285.25 139.355469 285.105469 139.417969 Z M 285.105469 139.417969 "/>
<path style=" stroke:none;fill-rule:nonzero;fill:rgb(0%,0%,0%);fill-opacity:1;" d="M 284.945312 147.175781 C 284.945312 147.765625 284.726562 148.179688 284.335938 148.339844 C 283.957031 148.496094 267.425781 148.71875 266.753906 148.570312 C 266.203125 148.449219 266.128906 148.351562 265.945312 147.582031 C 265.8125 146.933594 265.800781 146.933594 265.335938 146.933594 L 264.859375 146.933594 L 264.894531 150.050781 C 264.90625 151.757812 264.96875 153.214844 265.03125 153.261719 C 265.078125 153.324219 265.324219 153.324219 265.566406 153.285156 C 265.980469 153.203125 266.007812 153.175781 266.007812 152.726562 C 266.007812 152.40625 266.105469 152.152344 266.300781 151.917969 L 266.59375 151.578125 L 270.1875 151.503906 C 272.152344 151.453125 276.148438 151.417969 279.058594 151.40625 L 284.347656 151.394531 L 284.628906 151.675781 C 284.800781 151.84375 284.945312 152.1875 284.996094 152.542969 L 285.082031 153.117188 L 285.59375 153.078125 C 285.996094 153.054688 286.105469 152.992188 286.09375 152.824219 C 286.09375 152.710938 286.082031 151.296875 286.070312 149.683594 L 286.046875 146.75 L 285.496094 146.75 C 284.945312 146.75 284.945312 146.75 284.945312 147.175781 Z M 284.945312 147.175781 "/>
<path style=" stroke:none;fill-rule:nonzero;fill:rgb(0%,0%,0%);fill-opacity:1;" d="M 285.070312 154.433594 C 285.070312 154.972656 284.871094 155.386719 284.53125 155.621094 C 284.25 155.792969 283.332031 155.828125 275.707031 155.914062 C 270.613281 155.976562 267.046875 155.960938 266.800781 155.902344 C 266.277344 155.753906 266.128906 155.558594 266.03125 154.851562 L 265.945312 154.265625 L 264.96875 154.265625 L 264.992188 157.441406 L 265.03125 160.617188 L 265.480469 160.617188 C 265.957031 160.617188 265.921875 160.679688 266.179688 159.542969 C 266.335938 158.871094 266.300781 158.871094 275.5625 158.773438 C 282.210938 158.710938 284.152344 158.722656 284.433594 158.835938 C 284.8125 158.992188 285.03125 159.382812 285.09375 160.007812 C 285.128906 160.347656 285.167969 160.375 285.644531 160.410156 L 286.15625 160.445312 L 286.132812 157.269531 L 286.121094 154.082031 L 285.59375 154.082031 C 285.09375 154.082031 285.070312 154.09375 285.070312 154.433594 Z M 285.070312 154.433594 "/>
<path style=" stroke:none;fill-rule:nonzero;fill:rgb(0%,0%,0%);fill-opacity:1;" d="M 33.933594 155.375 C 33.882812 155.425781 33.847656 155.597656 33.847656 155.753906 C 33.847656 155.914062 33.773438 156.230469 33.675781 156.464844 C 33.542969 156.78125 33.394531 156.902344 33.027344 157 C 32.746094 157.074219 29.3125 157.136719 24.097656 157.148438 C 15.785156 157.171875 15.617188 157.171875 15.296875 156.929688 C 15.054688 156.746094 14.945312 156.523438 14.859375 156.046875 L 14.75 155.414062 L 14.257812 155.449219 L 13.769531 155.484375 L 13.796875 158.601562 C 13.808594 160.3125 13.855469 161.753906 13.90625 161.804688 C 13.953125 161.851562 14.1875 161.839844 14.417969 161.792969 C 14.785156 161.71875 14.847656 161.65625 14.882812 161.351562 C 14.894531 161.144531 14.945312 160.863281 14.96875 160.714844 C 15.101562 160.09375 15.066406 160.105469 24.460938 160.054688 L 33.222656 160.007812 L 33.492188 160.265625 C 33.652344 160.433594 33.773438 160.742188 33.808594 161.09375 C 33.882812 161.679688 34.117188 161.863281 34.664062 161.753906 C 34.871094 161.71875 34.886719 161.523438 34.886719 158.542969 L 34.886719 155.363281 L 34.445312 155.328125 C 34.214844 155.304688 33.980469 155.328125 33.933594 155.375 Z M 33.933594 155.375 "/>
<path style=" stroke:none;fill-rule:nonzero;fill:rgb(0%,0%,0%);fill-opacity:1;" d="M 40.589844 192.203125 C 40.152344 192.472656 40.128906 192.535156 40.382812 193.011719 C 40.652344 193.523438 40.605469 193.964844 40.273438 194.292969 C 40.03125 194.550781 38.269531 195.566406 33.480469 198.265625 C 32.980469 198.546875 30.9375 199.695312 28.972656 200.804688 C 26.992188 201.917969 25.230469 202.835938 25.0625 202.835938 C 24.867188 202.835938 24.597656 202.652344 24.265625 202.296875 L 23.765625 201.773438 L 23.375 201.953125 C 23.15625 202.066406 22.972656 202.199219 22.972656 202.261719 C 22.972656 202.320312 23.324219 202.957031 23.753906 203.679688 C 24.179688 204.386719 24.839844 205.546875 25.21875 206.257812 C 25.609375 206.964844 25.964844 207.589844 26.015625 207.636719 C 26.148438 207.769531 26.882812 207.390625 26.882812 207.195312 C 26.871094 207.125 26.796875 206.914062 26.699219 206.746094 C 26.417969 206.257812 26.476562 205.792969 26.855469 205.414062 C 27.039062 205.230469 29.03125 204.042969 31.28125 202.773438 C 33.527344 201.515625 36.71875 199.707031 38.367188 198.765625 C 40.714844 197.433594 41.484375 197.042969 41.921875 196.992188 C 42.511719 196.945312 42.523438 196.945312 43.21875 197.933594 C 43.28125 198.03125 44.109375 197.59375 44.109375 197.46875 C 44.109375 197.398438 43.804688 196.847656 43.4375 196.25 C 43.070312 195.636719 42.410156 194.464844 41.960938 193.644531 C 41.519531 192.816406 41.117188 192.105469 41.066406 192.058594 C 41.019531 192.007812 40.8125 192.070312 40.589844 192.203125 Z M 40.589844 192.203125 "/>
<path style=" stroke:none;fill-rule:nonzero;fill:rgb(0%,0%,0%);fill-opacity:1;" d="M 257 196.8125 C 256.621094 197.46875 255.878906 198.691406 255.351562 199.523438 C 254.460938 200.929688 254.410156 201.039062 254.605469 201.199219 C 255.082031 201.5625 255.253906 201.527344 255.742188 201.003906 C 256.183594 200.527344 256.269531 200.488281 256.660156 200.550781 C 256.890625 200.585938 257.5625 200.917969 258.148438 201.28125 C 258.75 201.636719 261.949219 203.605469 265.273438 205.644531 C 268.597656 207.6875 271.46875 209.492188 271.664062 209.652344 C 272.054688 210.019531 272.105469 210.582031 271.796875 211.167969 C 271.578125 211.582031 271.628906 211.65625 272.261719 212.011719 C 272.496094 212.132812 272.605469 211.988281 273.398438 210.59375 C 273.59375 210.25 274.21875 209.25 274.78125 208.359375 C 275.757812 206.816406 275.792969 206.71875 275.585938 206.5625 C 275.097656 206.195312 274.925781 206.21875 274.449219 206.734375 C 273.925781 207.292969 273.667969 207.34375 272.984375 206.988281 C 272.59375 206.792969 260.910156 199.65625 259.226562 198.59375 C 258.136719 197.898438 257.929688 197.386719 258.40625 196.578125 C 258.613281 196.210938 258.613281 196.210938 258.246094 195.917969 C 258.050781 195.761719 257.84375 195.625 257.796875 195.625 C 257.746094 195.625 257.390625 196.164062 257 196.8125 Z M 257 196.8125 "/>
<path style=" stroke:none;fill-rule:nonzero;fill:rgb(0%,0%,0%);fill-opacity:1;" d="M 44.074219 198.679688 L 43.757812 198.9375 L 44.011719 199.472656 C 44.464844 200.414062 44.28125 200.609375 41.238281 202.320312 C 40.164062 202.921875 37.035156 204.691406 34.273438 206.257812 C 31.132812 208.027344 29.09375 209.117188 28.8125 209.152344 C 28.433594 209.214844 28.300781 209.164062 28.007812 208.871094 C 27.808594 208.675781 27.628906 208.441406 27.601562 208.34375 C 27.53125 208.148438 27.078125 208.222656 26.722656 208.480469 C 26.527344 208.625 26.578125 208.75 27.320312 209.984375 C 27.773438 210.714844 28.457031 211.949219 28.859375 212.695312 C 29.265625 213.453125 29.644531 214.078125 29.703125 214.078125 C 29.777344 214.078125 29.996094 213.992188 30.191406 213.878906 C 30.472656 213.746094 30.546875 213.636719 30.472656 213.488281 C 30.207031 212.855469 30.09375 212.425781 30.144531 212.230469 C 30.265625 211.753906 29.949219 211.949219 41.59375 205.386719 C 45.746094 203.042969 45.808594 203.03125 46.445312 203.8125 C 46.882812 204.351562 47.09375 204.398438 47.507812 204.082031 L 47.800781 203.859375 L 46.957031 202.457031 C 46.492188 201.6875 45.796875 200.476562 45.40625 199.742188 C 45.027344 199.023438 44.636719 198.4375 44.550781 198.4375 C 44.464844 198.4375 44.246094 198.546875 44.074219 198.679688 Z M 44.074219 198.679688 "/>
<path style=" stroke:none;fill-rule:nonzero;fill:rgb(0%,0%,0%);fill-opacity:1;" d="M 253.691406 202.199219 C 253.566406 202.382812 253.3125 202.796875 253.117188 203.140625 C 252.933594 203.46875 252.285156 204.535156 251.6875 205.472656 C 251.101562 206.425781 250.609375 207.234375 250.609375 207.269531 C 250.609375 207.308594 250.78125 207.441406 251.003906 207.574219 L 251.394531 207.832031 L 251.90625 207.269531 C 252.371094 206.769531 252.46875 206.71875 252.824219 206.792969 C 253.238281 206.878906 253.042969 206.757812 261.484375 211.925781 C 264.75 213.929688 267.59375 215.75 267.816406 215.980469 C 268.242188 216.421875 268.292969 216.777344 268.023438 217.253906 C 267.765625 217.707031 267.804688 217.914062 268.195312 218.144531 C 268.390625 218.253906 268.574219 218.351562 268.609375 218.351562 C 268.632812 218.351562 268.976562 217.816406 269.367188 217.15625 C 269.757812 216.507812 270.480469 215.335938 270.96875 214.554688 C 271.46875 213.769531 271.871094 213.074219 271.871094 212.988281 C 271.871094 212.914062 271.675781 212.757812 271.433594 212.648438 C 271.015625 212.4375 270.992188 212.4375 270.859375 212.671875 C 270.601562 213.136719 270.171875 213.464844 269.808594 213.464844 C 269.429688 213.464844 268.644531 213.011719 260.753906 208.148438 C 258.371094 206.683594 256.085938 205.289062 255.695312 205.046875 C 254.800781 204.507812 254.277344 203.996094 254.277344 203.679688 C 254.277344 203.542969 254.386719 203.226562 254.519531 202.957031 C 254.65625 202.6875 254.765625 202.457031 254.765625 202.417969 C 254.765625 202.394531 254.570312 202.261719 254.335938 202.125 L 253.921875 201.871094 Z M 253.691406 202.199219 "/>
<path style=" stroke:none;fill-rule:nonzero;fill:rgb(0%,0%,0%);fill-opacity:1;" d="M 47.726562 205.070312 C 47.386719 205.351562 47.386719 205.363281 47.582031 205.742188 C 47.875 206.316406 47.824219 206.769531 47.445312 207.136719 C 47.25 207.308594 45.148438 208.542969 42.765625 209.898438 C 40.382812 211.242188 37.195312 213.039062 35.679688 213.894531 C 32.613281 215.628906 32.125 215.800781 31.621094 215.273438 C 31.464844 215.113281 31.28125 214.882812 31.21875 214.761719 C 31.074219 214.515625 30.792969 214.554688 30.375 214.871094 C 30.15625 215.042969 30.179688 215.101562 31 216.484375 C 31.476562 217.277344 32.171875 218.511719 32.550781 219.234375 L 33.246094 220.539062 L 33.675781 220.34375 C 34.128906 220.125 34.175781 219.929688 33.90625 219.453125 C 33.808594 219.28125 33.738281 219.023438 33.722656 218.878906 C 33.722656 218.265625 33.957031 218.121094 40.8125 214.257812 C 41.3125 213.976562 43.304688 212.855469 45.234375 211.765625 C 47.164062 210.679688 48.9375 209.75 49.15625 209.714844 C 49.574219 209.652344 49.71875 209.75 50.316406 210.519531 C 50.550781 210.8125 50.550781 210.8125 50.929688 210.582031 C 51.148438 210.460938 51.320312 210.3125 51.320312 210.25 C 51.320312 210.191406 50.941406 209.492188 50.488281 208.710938 C 50.023438 207.929688 49.351562 206.734375 48.984375 206.046875 C 48.621094 205.351562 48.277344 204.789062 48.203125 204.789062 C 48.144531 204.789062 47.921875 204.910156 47.726562 205.070312 Z M 47.726562 205.070312 "/>
<path style=" stroke:none;fill-rule:nonzero;fill:rgb(0%,0%,0%);fill-opacity:1;" d="M 249.558594 208.980469 C 249.070312 209.824219 247.554688 212.292969 246.980469 213.171875 C 246.824219 213.417969 246.847656 213.453125 247.261719 213.699219 L 247.703125 213.964844 L 248.117188 213.476562 C 248.632812 212.878906 248.886719 212.792969 249.4375 213.027344 C 249.914062 213.222656 263.746094 221.6875 264.101562 222.007812 C 264.515625 222.371094 264.566406 222.726562 264.296875 223.339844 L 264.039062 223.914062 L 264.382812 224.179688 C 264.566406 224.339844 264.785156 224.460938 264.847656 224.460938 C 264.917969 224.460938 265.261719 223.949219 265.628906 223.324219 C 265.996094 222.714844 266.714844 221.53125 267.242188 220.699219 C 267.777344 219.867188 268.207031 219.148438 268.207031 219.097656 C 268.207031 219.050781 268.011719 218.902344 267.765625 218.769531 L 267.328125 218.535156 L 267.117188 218.839844 C 266.398438 219.941406 266.203125 219.90625 263.125 218.011719 C 261.71875 217.144531 258.480469 215.152344 255.925781 213.585938 C 253.371094 212.023438 251.136719 210.605469 250.953125 210.433594 C 250.5625 210.070312 250.511719 209.617188 250.804688 209.054688 C 251.039062 208.589844 250.976562 208.40625 250.5 208.164062 L 250.148438 207.964844 Z M 249.558594 208.980469 "/>
<path style=" stroke:none;fill-rule:nonzero;fill:rgb(0%,0%,0%);fill-opacity:1;" d="M 245.601562 215.445312 C 245.246094 216.066406 244.515625 217.253906 243.988281 218.085938 C 243.460938 218.914062 243.058594 219.636719 243.097656 219.710938 C 243.144531 219.769531 243.339844 219.90625 243.546875 220.015625 C 243.902344 220.199219 243.9375 220.199219 244.050781 219.988281 C 244.316406 219.5 244.734375 219.207031 245.148438 219.207031 C 245.625 219.207031 245.492188 219.136719 253.847656 224.265625 C 257.210938 226.320312 260.105469 228.175781 260.300781 228.371094 C 260.667969 228.789062 260.714844 229.238281 260.445312 229.714844 C 260.347656 229.886719 260.277344 230.09375 260.265625 230.167969 C 260.265625 230.351562 260.960938 230.730469 261.105469 230.632812 C 261.167969 230.597656 261.484375 230.121094 261.804688 229.558594 C 262.28125 228.726562 263.503906 226.757812 264.257812 225.609375 C 264.417969 225.367188 264.394531 225.328125 263.976562 225.0625 L 263.527344 224.792969 L 263.109375 225.292969 C 262.425781 226.125 262.207031 226.0625 259.53125 224.414062 C 258.285156 223.65625 255.09375 221.699219 252.445312 220.0625 C 249.792969 218.4375 247.445312 216.972656 247.238281 216.8125 C 246.714844 216.421875 246.628906 216.007812 246.957031 215.347656 C 247.105469 215.042969 247.203125 214.785156 247.175781 214.761719 C 246.871094 214.539062 246.492188 214.320312 246.394531 214.320312 C 246.320312 214.320312 245.96875 214.832031 245.601562 215.445312 Z M 245.601562 215.445312 "/>
<path style=" stroke:none;fill-rule:nonzero;fill:rgb(0%,0%,0%);fill-opacity:1;" d="M 51.871094 217.4375 C 44.90625 219.269531 36.058594 221.53125 35.824219 221.53125 C 35.421875 221.53125 34.984375 221.285156 34.8125 220.96875 C 34.738281 220.808594 34.566406 220.648438 34.445312 220.613281 C 34.199219 220.527344 33.761719 220.761719 33.664062 221.027344 C 33.625 221.113281 33.917969 221.726562 34.296875 222.371094 C 34.691406 223.019531 35.25 224.035156 35.558594 224.621094 C 36.035156 225.539062 36.144531 225.683594 36.425781 225.683594 C 36.597656 225.683594 36.839844 225.574219 36.960938 225.441406 C 37.171875 225.207031 37.15625 225.183594 36.851562 224.597656 C 36.472656 223.863281 36.460938 223.65625 36.777344 223.484375 C 36.902344 223.410156 39.589844 222.691406 42.730469 221.882812 C 45.871094 221.078125 48.71875 220.332031 49.046875 220.246094 C 49.375 220.148438 49.671875 220.089844 49.695312 220.113281 C 49.71875 220.136719 48.105469 221.714844 46.101562 223.621094 C 40.605469 228.859375 40.53125 228.933594 40.226562 229.09375 C 39.785156 229.324219 39.441406 229.167969 39.078125 228.554688 C 38.855469 228.1875 38.660156 228.007812 38.488281 228.007812 C 38.234375 228.007812 37.707031 228.445312 37.792969 228.59375 C 37.816406 228.640625 38.195312 229.277344 38.636719 230.023438 C 39.078125 230.753906 39.75 231.953125 40.128906 232.671875 C 40.507812 233.40625 40.871094 233.992188 40.933594 233.992188 C 41.152344 233.992188 41.65625 233.710938 41.714844 233.554688 C 41.753906 233.46875 41.691406 233.1875 41.582031 232.917969 C 41.410156 232.476562 41.410156 232.390625 41.59375 232.027344 C 41.703125 231.78125 44.414062 229.105469 48.289062 225.414062 C 51.871094 222.007812 55.046875 218.976562 55.339844 218.671875 C 55.976562 218.023438 56.046875 217.558594 55.597656 217.070312 C 55.191406 216.640625 54.742188 216.679688 51.871094 217.4375 Z M 51.871094 217.4375 "/>
<path style=" stroke:none;fill-rule:nonzero;fill:rgb(0%,0%,0%);fill-opacity:1;" d="M 79.421875 243.425781 C 79.117188 243.9375 79.105469 243.914062 79.546875 244.183594 C 80.070312 244.488281 80.316406 244.90625 80.21875 245.34375 C 80.179688 245.539062 79.65625 246.542969 79.070312 247.582031 C 71.796875 260.265625 71.578125 260.628906 71.054688 260.628906 C 70.941406 260.628906 70.664062 260.546875 70.417969 260.445312 C 69.820312 260.191406 69.746094 260.214844 69.488281 260.65625 C 69.234375 261.09375 69.121094 260.996094 70.734375 261.863281 C 71.359375 262.207031 72.507812 262.867188 73.277344 263.332031 C 74.035156 263.796875 74.71875 264.175781 74.792969 264.175781 C 74.851562 264.175781 75 263.976562 75.109375 263.734375 C 75.316406 263.320312 75.316406 263.292969 75.085938 263.160156 C 74.949219 263.085938 74.683594 262.867188 74.488281 262.683594 C 74.207031 262.402344 74.15625 262.253906 74.21875 261.972656 C 74.265625 261.667969 77.554688 255.839844 80.707031 250.425781 C 81.0625 249.816406 81.660156 248.789062 82.050781 248.128906 C 82.820312 246.796875 83.175781 246.519531 83.820312 246.699219 C 84.03125 246.761719 84.285156 246.871094 84.382812 246.945312 C 84.46875 247.03125 84.605469 247.054688 84.675781 247.007812 C 84.8125 246.921875 85.203125 246.210938 85.140625 246.152344 C 85.117188 246.140625 84.335938 245.699219 83.40625 245.1875 C 82.476562 244.660156 81.425781 244.0625 81.074219 243.828125 C 80.71875 243.609375 80.253906 243.328125 80.046875 243.230469 C 79.667969 243.035156 79.667969 243.035156 79.421875 243.425781 Z M 79.421875 243.425781 "/>
<path style=" stroke:none;fill-rule:nonzero;fill:rgb(0%,0%,0%);fill-opacity:1;" d="M 85.777344 247.09375 L 85.53125 247.496094 L 86.082031 247.996094 C 86.414062 248.289062 86.632812 248.605469 86.632812 248.765625 C 86.632812 249.109375 86.265625 249.828125 84.859375 252.261719 C 84.238281 253.335938 82.503906 256.328125 81.023438 258.917969 C 79.535156 261.511719 78.152344 263.769531 77.945312 263.953125 C 77.53125 264.34375 77.382812 264.371094 76.773438 264.113281 C 76.222656 263.878906 76.074219 263.929688 75.832031 264.394531 L 75.648438 264.75 L 77.039062 265.507812 C 77.796875 265.921875 79.019531 266.617188 79.730469 267.046875 C 80.449219 267.484375 81.085938 267.839844 81.144531 267.839844 C 81.257812 267.839844 81.621094 267.203125 81.621094 267.019531 C 81.621094 266.972656 81.425781 266.800781 81.183594 266.640625 C 80.949219 266.496094 80.707031 266.226562 80.632812 266.042969 C 80.449219 265.554688 80.230469 265.96875 86.667969 254.828125 C 87.402344 253.542969 88.234375 252.101562 88.515625 251.601562 C 89.246094 250.292969 89.710938 250.074219 90.6875 250.574219 C 91.019531 250.734375 91.042969 250.722656 91.277344 250.34375 C 91.410156 250.121094 91.519531 249.902344 91.519531 249.867188 C 91.519531 249.828125 90.898438 249.449219 90.128906 249.035156 C 89.355469 248.621094 88.136719 247.921875 87.425781 247.496094 C 86.707031 247.054688 86.09375 246.699219 86.070312 246.699219 C 86.046875 246.699219 85.910156 246.882812 85.777344 247.09375 Z M 85.777344 247.09375 "/>
<path style=" stroke:none;fill-rule:nonzero;fill:rgb(0%,0%,0%);fill-opacity:1;" d="M 207.429688 249.9375 C 207.085938 250.257812 207.015625 250.722656 207.246094 251.308594 C 207.320312 251.492188 207.589844 252.359375 207.84375 253.238281 C 208.101562 254.105469 209.273438 258.039062 210.460938 261.960938 C 211.71875 266.152344 212.609375 269.304688 212.609375 269.585938 C 212.609375 270.003906 212.523438 270.171875 212.171875 270.539062 C 211.695312 271.027344 211.679688 271.394531 212.144531 271.640625 C 212.351562 271.75 212.550781 271.664062 213.378906 271.125 C 213.929688 270.785156 214.882812 270.199219 215.507812 269.832031 C 216.863281 269.039062 216.933594 268.953125 216.753906 268.535156 C 216.542969 268.070312 216.3125 268.046875 215.703125 268.390625 C 215.015625 268.769531 214.734375 268.78125 214.554688 268.425781 C 214.453125 268.230469 211.972656 260.152344 210.691406 255.804688 C 210.617188 255.570312 212.5 257.34375 217.839844 262.550781 C 220.566406 265.210938 220.578125 265.238281 219.574219 265.957031 C 219.246094 266.203125 218.964844 266.472656 218.964844 266.570312 C 218.964844 266.667969 219.097656 266.886719 219.269531 267.046875 L 219.5625 267.351562 L 221.25 266.277344 C 222.175781 265.675781 223.363281 264.957031 223.875 264.652344 C 224.683594 264.199219 224.828125 264.0625 224.828125 263.796875 C 224.828125 263.378906 224.546875 263.148438 224.15625 263.246094 C 223.984375 263.28125 223.71875 263.355469 223.546875 263.390625 C 223.386719 263.441406 223.105469 263.429688 222.933594 263.390625 C 222.75 263.34375 219.757812 260.519531 215.605469 256.476562 C 209.140625 250.171875 208.554688 249.632812 208.175781 249.632812 C 207.90625 249.632812 207.648438 249.742188 207.429688 249.9375 Z M 207.429688 249.9375 "/>
<path style=" stroke:none;fill-rule:nonzero;fill:rgb(0%,0%,0%);fill-opacity:1;" d="M 97.933594 253.554688 C 97.800781 253.628906 94.550781 256.832031 90.714844 260.65625 L 83.722656 267.621094 L 83.261719 267.558594 C 82.992188 267.523438 82.625 267.449219 82.441406 267.410156 C 82.183594 267.339844 82.0625 267.375 81.929688 267.546875 C 81.550781 268.046875 81.683594 268.265625 82.757812 268.828125 C 83.308594 269.109375 84.324219 269.695312 85.019531 270.125 C 85.703125 270.539062 86.289062 270.894531 86.328125 270.894531 C 86.472656 270.894531 86.875 270.332031 86.875 270.136719 C 86.875 270.003906 86.644531 269.769531 86.277344 269.550781 C 85.949219 269.34375 85.65625 269.097656 85.617188 269 C 85.582031 268.914062 85.703125 268.632812 85.898438 268.390625 C 86.300781 267.886719 95.089844 259.03125 95.136719 259.078125 C 95.160156 259.089844 95.039062 259.578125 94.878906 260.140625 C 92.398438 268.878906 91.605469 271.617188 91.445312 271.835938 C 91.214844 272.191406 90.933594 272.191406 90.238281 271.824219 C 89.929688 271.652344 89.601562 271.542969 89.515625 271.578125 C 89.285156 271.664062 89.027344 272.191406 89.113281 272.398438 C 89.148438 272.496094 89.773438 272.898438 90.507812 273.289062 C 91.226562 273.679688 92.386719 274.339844 93.085938 274.769531 C 93.78125 275.195312 94.441406 275.539062 94.550781 275.511719 C 94.660156 275.488281 94.832031 275.316406 94.941406 275.132812 C 95.125 274.792969 95.113281 274.78125 94.734375 274.460938 C 94.195312 273.996094 94.0625 273.582031 94.21875 272.875 C 94.28125 272.554688 94.964844 270.101562 95.734375 267.410156 C 98.972656 256 99.339844 254.679688 99.339844 254.386719 C 99.339844 253.800781 98.449219 253.273438 97.933594 253.554688 Z M 97.933594 253.554688 "/>
<path style=" stroke:none;fill-rule:nonzero;fill:rgb(0%,0%,0%);fill-opacity:1;" d="M 153.273438 265.285156 C 152.835938 265.507812 152.90625 265.261719 151.269531 271.382812 C 150.792969 273.167969 150.160156 275.5 149.867188 276.578125 C 149.574219 277.652344 148.996094 279.789062 148.582031 281.339844 C 147.714844 284.519531 147.507812 285.03125 147.019531 285.140625 C 146.113281 285.335938 146.078125 285.363281 146.078125 285.875 L 146.078125 286.351562 L 148.765625 286.375 C 151.636719 286.414062 151.636719 286.414062 151.636719 285.765625 C 151.636719 285.375 151.578125 285.335938 150.597656 285.214844 C 149.914062 285.140625 149.867188 285.105469 149.828125 284.800781 C 149.804688 284.617188 149.949219 283.871094 150.160156 283.148438 C 150.355469 282.417969 151.113281 279.65625 151.820312 277.003906 C 153.273438 271.617188 153.214844 271.824219 153.285156 271.882812 C 153.347656 271.957031 156.257812 283.722656 156.355469 284.324219 C 156.464844 285.019531 156.132812 285.3125 155.242188 285.3125 C 154.644531 285.3125 154.570312 285.335938 154.496094 285.605469 C 154.460938 285.777344 154.460938 286.023438 154.507812 286.15625 C 154.582031 286.414062 154.632812 286.414062 157.785156 286.386719 L 160.984375 286.351562 L 160.984375 285.863281 C 160.984375 285.386719 160.984375 285.375 160.433594 285.289062 C 160.082031 285.226562 159.789062 285.09375 159.628906 284.898438 C 159.421875 284.664062 158.808594 282.367188 157.015625 275.148438 C 155.5 269.039062 154.605469 265.628906 154.472656 265.492188 C 154.203125 265.226562 153.605469 265.113281 153.273438 265.285156 Z M 153.273438 265.285156 "/>
<path style=" stroke:none;fill-rule:nonzero;fill:rgb(0%,0%,0%);fill-opacity:1;" d="M 139.199219 266.03125 L 139.234375 266.558594 L 139.832031 266.628906 C 140.261719 266.679688 140.492188 266.777344 140.664062 266.972656 C 140.882812 267.253906 140.882812 267.59375 140.859375 275.976562 L 140.824219 284.691406 L 140.566406 284.957031 C 140.394531 285.117188 140.089844 285.238281 139.734375 285.277344 L 139.175781 285.347656 L 139.175781 286.351562 L 145.527344 286.351562 L 145.527344 285.824219 C 145.527344 285.3125 145.527344 285.3125 145.101562 285.3125 C 144.402344 285.3125 143.964844 285.019531 143.816406 284.445312 C 143.632812 283.773438 143.78125 267.691406 143.964844 267.191406 C 144.109375 266.800781 144.476562 266.617188 145.113281 266.617188 C 145.527344 266.617188 145.527344 266.617188 145.527344 266.066406 L 145.527344 265.519531 L 139.160156 265.519531 Z M 139.199219 266.03125 "/>
</g>
</svg>
